<svg width="97" height="22" viewBox="0 0 97 22" fill="none" xmlns="http://www.w3.org/2000/svg">
<rect y="6" width="23.0714" height="9" rx="1" fill="#62698C"/>
<rect x="54" width="41.5714" height="9" rx="1" fill="#F46060"/>
<rect x="36" y="13" width="26.5714" height="9" rx="1" fill="#AFB3D5"/>
<path d="M54 4.5001C47.3333 4.33343 45.7249 4.50011 42.5 4.5001C27 4.5 38.5 11.0001 23 11.0001C34.5 11.0001 24.5 17.5 36 17.5M62.5 17.5H74" stroke="#3452B4"/>
<rect x="74.5" y="13.5" width="21.5" height="8" rx="0.5" fill="#62698C" stroke="#62698C"/>
<line x1="71.3536" y1="14.6464" x2="74.3536" y2="17.6464" stroke="#3452B4"/>
<line x1="74.3536" y1="17.3536" x2="71.3536" y2="20.3536" stroke="#3452B4"/>
<line x1="51.3536" y1="1.64645" x2="54.3536" y2="4.64645" stroke="#3452B4"/>
<line x1="54.3536" y1="4.35355" x2="51.3536" y2="7.35355" stroke="#3452B4"/>
<line x1="33.3536" y1="14.6464" x2="36.3536" y2="17.6464" stroke="#3452B4"/>
<line x1="36.3536" y1="17.3536" x2="33.3536" y2="20.3536" stroke="#3452B4"/>
</svg>
