<svg width="42" height="42" viewBox="0 0 42 42" fill="none" xmlns="http://www.w3.org/2000/svg">
<path d="M21.0455 3.5C12.4827 3.4989 5.1832 9.70898 3.81223 18.1614C2.44125 26.6138 7.40357 34.8127 15.5278 37.5183C16.4028 37.6758 16.716 37.1385 16.716 36.6765C16.716 36.2618 16.702 35.1628 16.6968 33.7015C11.8405 34.7515 10.815 31.36 10.815 31.36C10.4953 30.3047 9.80804 29.3988 8.87778 28.8068C7.30278 27.7235 8.99853 27.748 8.99853 27.748C10.1197 27.9017 11.1065 28.566 11.6708 29.547C12.1484 30.4154 12.9531 31.0572 13.9061 31.3296C14.859 31.602 15.8813 31.4825 16.7458 30.9978C16.827 30.1123 17.221 29.2846 17.857 28.6633C13.9825 28.224 9.90853 26.726 9.90853 20.0358C9.88702 18.3053 10.5296 16.6325 11.704 15.3615C11.1726 13.8553 11.2352 12.2032 11.879 10.7415C11.879 10.7415 13.3438 10.2708 16.6775 12.5283C19.5368 11.7443 22.5543 11.7443 25.4135 12.5283C28.749 10.269 30.212 10.7415 30.212 10.7415C30.8588 12.2025 30.9214 13.8558 30.387 15.3615C31.5658 16.6324 32.2078 18.3096 32.179 20.0428C32.179 26.7505 28.1015 28.224 24.213 28.6563C25.0518 29.5139 25.482 30.6903 25.3943 31.8868C25.3943 34.2213 25.3733 36.1043 25.3733 36.6765C25.3733 37.1438 25.6848 37.6863 26.5755 37.5148C34.6963 34.8046 39.6534 26.6052 38.2796 18.1551C36.9058 9.70489 29.6066 3.49804 21.0455 3.5Z" fill="white"/>
</svg>
