<svg width="465" height="128" viewBox="0 0 465 128" fill="none" xmlns="http://www.w3.org/2000/svg">
<path d="M180.64 76.936H171.68L159.52 50.376H156.96L158.88 53.576V76.936H153.76V45.576H162.784L174.88 72.136H177.44L175.52 68.936V45.576H180.64V76.936ZM215.815 54.6L211.975 58.44H195.975V73.16H209.415V60.36H213.895V85.96C213.895 87.1973 213.447 88.2427 212.551 89.096C211.698 89.992 210.652 90.44 209.415 90.44H190.855L194.695 86.6H209.415V73.736L205.575 77H195.975C194.738 77 193.671 76.5733 192.775 75.72C191.922 74.824 191.495 73.7573 191.495 72.52V59.08C191.495 57.8427 191.922 56.7973 192.775 55.944C193.671 55.048 194.738 54.6 195.975 54.6H215.815ZM243.008 77H237.503L231.424 68.168H230.784L224.704 77H219.328L228.224 65.224L219.968 54.6H225.344L230.912 62.536H231.552L236.864 54.6H242.368L233.984 65.224L243.008 77ZM271.785 68.04H254.505V77H249.385V54.6L253.865 50.12H249.385V45.64H271.785V50.12H254.505V67.4L258.345 63.56H271.785V68.04ZM301.88 72.52C301.88 73.7573 301.432 74.824 300.536 75.72C299.683 76.5733 298.637 77 297.4 77H283.96C282.723 77 281.656 76.5733 280.76 75.72C279.907 74.824 279.48 73.7573 279.48 72.52V59.08C279.48 57.8427 279.907 56.7973 280.76 55.944C281.656 55.048 282.723 54.6 283.96 54.6H297.4C298.637 54.6 299.683 55.048 300.536 55.944C301.432 56.7973 301.88 57.8427 301.88 59.08V72.52ZM297.4 73.16V58.44H283.96V73.16H297.4ZM328.775 63.56H324.295V58.44H315.335V77H310.855V54.6H315.335V57.8L318.535 54.6H324.295C325.532 54.6 326.578 55.048 327.431 55.944C328.327 56.7973 328.775 57.8427 328.775 59.08V63.56ZM373.553 77H369.073V58.44H356.913V77H352.433V58.44H340.273V77H335.793V54.6H340.273V57.8L343.473 54.6H352.433C355.035 54.6 356.507 55.688 356.849 57.864L360.113 54.6H369.073C370.31 54.6 371.355 55.048 372.209 55.944C373.105 56.7973 373.553 57.8427 373.553 59.08V77ZM406.223 77H383.823V45.64H388.943V72.52H401.103V68.04H406.223V77ZM415.835 50.76H411.355V45.64H415.835V50.76ZM415.835 77H411.355V57.8L415.835 53.32V77ZM447.833 72.52C447.833 73.7573 447.385 74.824 446.489 75.72C445.635 76.5733 444.59 77 443.353 77H429.913V73.224L425.433 77.64V44.36L429.913 39.88V57.8L433.113 54.6H443.353C444.59 54.6 445.635 55.048 446.489 55.944C447.385 56.7973 447.833 57.8427 447.833 59.08V72.52ZM443.353 73.16V58.44H429.913V73.16H443.353Z" fill="#424242"/>
<rect width="128" height="128" rx="3" fill="#4A4A4E"/>
<rect x="14.8837" y="11.907" width="35.7209" height="8.93023" rx="2" fill="#C4C4C4"/>
<rect x="14.8837" y="107.163" width="17.8605" height="8.93023" rx="2" fill="#717AAE"/>
<rect x="35.7209" y="107.163" width="20.8372" height="8.93023" rx="2" fill="#AFB3D5"/>
<rect x="56.5582" y="11.907" width="59.5349" height="8.93023" rx="2" fill="#A0A0A0"/>
<rect x="14.8837" y="23.814" width="101.209" height="14.8837" rx="2" fill="#C4C4C4"/>
<rect x="14.8837" y="41.6744" width="8.93023" height="8.93023" rx="2" fill="#717AAE"/>
<rect x="47.6279" y="53.5814" width="8.93024" height="8.93023" rx="2" fill="#717AAE"/>
<path d="M14.8837 92.2791C14.8837 90.6351 16.2165 89.3023 17.8605 89.3023V89.3023C19.5045 89.3023 20.8372 90.6351 20.8372 92.2791V92.2791C20.8372 93.9231 19.5045 95.2558 17.8605 95.2558V95.2558C16.2165 95.2558 14.8837 93.9231 14.8837 92.2791V92.2791Z" fill="white"/>
<path d="M14.8837 101.209C14.8837 99.5653 16.2165 98.2326 17.8605 98.2326V98.2326C19.5045 98.2326 20.8372 99.5653 20.8372 101.209V101.209C20.8372 102.853 19.5045 104.186 17.8605 104.186V104.186C16.2165 104.186 14.8837 102.853 14.8837 101.209V101.209Z" fill="white"/>
<rect x="14.8837" y="65.4884" width="68.4651" height="20.8372" rx="2" fill="#F2F2F2"/>
<rect x="23.814" y="89.3023" width="32.7442" height="5.95349" rx="2" fill="#C4C4C4"/>
<rect x="23.814" y="98.2326" width="32.7442" height="5.95349" rx="2" fill="#C4C4C4"/>
<rect x="26.7907" y="41.6744" width="29.7674" height="8.93023" rx="2" fill="#C4C4C4"/>
<rect x="14.8837" y="53.5814" width="29.7674" height="8.93023" rx="2" fill="#C4C4C4"/>
<path d="M16.4103 27.8974H114.872M16.4103 34.4615H47.5898M54.1539 34.4615H114.872" stroke="white"/>
</svg>
