<svg width="34" height="34" viewBox="0 0 34 34" fill="none" xmlns="http://www.w3.org/2000/svg">
<rect width="34" height="34" rx="3" fill="#4A4A4E"/>
<rect x="3.95349" y="3.16278" width="9.48837" height="2.37209" rx="1" fill="#C4C4C4"/>
<rect x="3.95349" y="28.4651" width="4.74419" height="2.37209" rx="1" fill="#717AAE"/>
<rect x="9.48837" y="28.4651" width="5.53488" height="2.37209" rx="1" fill="#AFB3D5"/>
<rect x="15.0233" y="3.16278" width="15.814" height="2.37209" rx="1" fill="#A0A0A0"/>
<rect x="3.95349" y="6.32556" width="26.8837" height="3.95349" rx="1" fill="#C4C4C4"/>
<rect x="3.95349" y="11.0698" width="2.37209" height="2.37209" rx="1" fill="#717AAE"/>
<rect x="12.6512" y="14.2325" width="2.37209" height="2.37209" rx="1" fill="#717AAE"/>
<path d="M3.95349 24.5116C3.95349 24.075 4.30749 23.7209 4.74419 23.7209V23.7209C5.18088 23.7209 5.53488 24.075 5.53488 24.5116V24.5116C5.53488 24.9483 5.18088 25.3023 4.74419 25.3023V25.3023C4.30749 25.3023 3.95349 24.9483 3.95349 24.5116V24.5116Z" fill="white"/>
<path d="M3.95349 26.8837C3.95349 26.447 4.30749 26.093 4.74419 26.093V26.093C5.18088 26.093 5.53488 26.447 5.53488 26.8837V26.8837C5.53488 27.3204 5.18088 27.6744 4.74419 27.6744V27.6744C4.30749 27.6744 3.95349 27.3204 3.95349 26.8837V26.8837Z" fill="white"/>
<rect x="3.95349" y="17.3953" width="18.186" height="5.53488" rx="1" fill="#F2F2F2"/>
<rect x="6.32558" y="23.7209" width="8.69767" height="1.5814" rx="0.790698" fill="#C4C4C4"/>
<rect x="6.32558" y="26.093" width="8.69767" height="1.5814" rx="0.790698" fill="#C4C4C4"/>
<rect x="7.11628" y="11.0698" width="7.90698" height="2.37209" rx="1" fill="#C4C4C4"/>
<rect x="3.95349" y="14.2325" width="7.90698" height="2.37209" rx="1" fill="#C4C4C4"/>
<path d="M4.35897 7.41028H30.5128M4.35897 9.15387H12.641M14.3846 9.15387H30.5128" stroke="white"/>
</svg>
